<svg width="70" height="70" viewBox="0 0 70 70" fill="none" xmlns="http://www.w3.org/2000/svg">
<rect width="70" height="70" rx="35" fill="#5868CD"/>
<path d="M32.5248 26.491C33.3471 24.0848 36.6718 24.0119 37.6467 26.2724L37.7292 26.4924L38.8388 29.7374C39.0931 30.4816 39.5041 31.1626 40.0439 31.7345C40.5838 32.3063 41.24 32.7558 41.9683 33.0525L42.2667 33.1639L45.5117 34.2721C47.918 35.0944 47.9908 38.4191 45.7317 39.394L45.5117 39.4765L42.2667 40.5861C41.5223 40.8403 40.841 41.2511 40.2689 41.791C39.6967 42.3308 39.2471 42.9872 38.9502 43.7156L38.8388 44.0126L37.7306 47.259C36.9083 49.6653 33.5836 49.7381 32.6101 47.479L32.5248 47.259L31.4166 44.014C31.1625 43.2696 30.7516 42.5883 30.2117 42.0161C29.6719 41.444 29.0155 40.9944 28.2871 40.6975L27.9901 40.5861L24.7451 39.4779C22.3375 38.6556 22.2646 35.3309 24.5251 34.3574L24.7451 34.2721L27.9901 33.1639C28.7343 32.9096 29.4153 32.4986 29.9872 31.9588C30.559 31.4189 31.0085 30.7627 31.3052 30.0344L31.4166 29.7374L32.5248 26.491ZM46.1277 21.75C46.3849 21.75 46.637 21.8222 46.8553 21.9583C47.0736 22.0944 47.2493 22.289 47.3625 22.52L47.4285 22.6809L47.9097 24.0916L49.3218 24.5729C49.5796 24.6605 49.8056 24.8226 49.9711 25.0387C50.1367 25.2549 50.2343 25.5153 50.2517 25.787C50.2691 26.0587 50.2054 26.3295 50.0688 26.565C49.9321 26.8004 49.7286 26.99 49.4841 27.1097L49.3218 27.1758L47.9111 27.657L47.4298 29.0691C47.3421 29.3268 47.1798 29.5527 46.9636 29.7181C46.7474 29.8835 46.4869 29.981 46.2152 29.9982C45.9435 30.0155 45.6728 29.9517 45.4374 29.8149C45.202 29.6781 45.0125 29.4746 44.893 29.23L44.827 29.0691L44.3457 27.6584L42.9336 27.1771C42.6758 27.0895 42.4498 26.9274 42.2843 26.7113C42.1187 26.4951 42.0211 26.2347 42.0037 25.963C41.9863 25.6913 42.05 25.4205 42.1867 25.185C42.3233 24.9496 42.5268 24.76 42.7713 24.6403L42.9336 24.5743L44.3443 24.093L44.8256 22.6809C44.9183 22.4092 45.0937 22.1734 45.3272 22.0064C45.5607 21.8395 45.8407 21.7498 46.1277 21.75Z" fill="white"/>
<circle cx="12.5" cy="9.5" r="0.5" fill="#D9D9D9"/>
<g filter="url(#filter0_i_491_330)">
<rect width="70" height="70" rx="35" fill="black" fill-opacity="0.01"/>
<path d="M32.5248 26.491C33.3471 24.0848 36.6718 24.0119 37.6467 26.2724L37.7292 26.4924L38.8388 29.7374C39.0931 30.4816 39.5041 31.1626 40.0439 31.7345C40.5838 32.3063 41.24 32.7558 41.9683 33.0525L42.2667 33.1639L45.5117 34.2721C47.918 35.0944 47.9908 38.4191 45.7317 39.394L45.5117 39.4765L42.2667 40.5861C41.5223 40.8403 40.841 41.2511 40.2689 41.791C39.6967 42.3308 39.2471 42.9872 38.9502 43.7156L38.8388 44.0126L37.7306 47.259C36.9083 49.6653 33.5836 49.7381 32.6101 47.479L32.5248 47.259L31.4166 44.014C31.1625 43.2696 30.7516 42.5883 30.2117 42.0161C29.6719 41.444 29.0155 40.9944 28.2871 40.6975L27.9901 40.5861L24.7451 39.4779C22.3375 38.6556 22.2646 35.3309 24.5251 34.3574L24.7451 34.2721L27.9901 33.1639C28.7343 32.9096 29.4153 32.4986 29.9872 31.9588C30.559 31.4189 31.0085 30.7627 31.3052 30.0344L31.4166 29.7374L32.5248 26.491ZM46.1277 21.75C46.3849 21.75 46.637 21.8222 46.8553 21.9583C47.0736 22.0944 47.2493 22.289 47.3625 22.52L47.4285 22.6809L47.9097 24.0916L49.3218 24.5729C49.5796 24.6605 49.8056 24.8226 49.9711 25.0387C50.1367 25.2549 50.2343 25.5153 50.2517 25.787C50.2691 26.0587 50.2054 26.3295 50.0688 26.565C49.9321 26.8004 49.7286 26.99 49.4841 27.1097L49.3218 27.1758L47.9111 27.657L47.4298 29.0691C47.3421 29.3268 47.1798 29.5527 46.9636 29.7181C46.7474 29.8835 46.4869 29.981 46.2152 29.9982C45.9435 30.0155 45.6728 29.9517 45.4374 29.8149C45.202 29.6781 45.0125 29.4746 44.893 29.23L44.827 29.0691L44.3457 27.6584L42.9336 27.1771C42.6758 27.0895 42.4498 26.9274 42.2843 26.7113C42.1187 26.4951 42.0211 26.2347 42.0037 25.963C41.9863 25.6913 42.05 25.4205 42.1867 25.185C42.3233 24.9496 42.5268 24.76 42.7713 24.6403L42.9336 24.5743L44.3443 24.093L44.8256 22.6809C44.9183 22.4092 45.0937 22.1734 45.3272 22.0064C45.5607 21.8395 45.8407 21.7498 46.1277 21.75Z" fill="white"/>
<circle cx="12.5" cy="9.5" r="0.5" fill="#D9D9D9"/>
</g>
<g filter="url(#filter1_i_491_330)">
<rect width="70" height="70" rx="35" fill="black" fill-opacity="0.01"/>
<path d="M32.5248 26.491C33.3471 24.0848 36.6718 24.0119 37.6467 26.2724L37.7292 26.4924L38.8388 29.7374C39.0931 30.4816 39.5041 31.1626 40.0439 31.7345C40.5838 32.3063 41.24 32.7558 41.9683 33.0525L42.2667 33.1639L45.5117 34.2721C47.918 35.0944 47.9908 38.4191 45.7317 39.394L45.5117 39.4765L42.2667 40.5861C41.5223 40.8403 40.841 41.2511 40.2689 41.791C39.6967 42.3308 39.2471 42.9872 38.9502 43.7156L38.8388 44.0126L37.7306 47.259C36.9083 49.6653 33.5836 49.7381 32.6101 47.479L32.5248 47.259L31.4166 44.014C31.1625 43.2696 30.7516 42.5883 30.2117 42.0161C29.6719 41.444 29.0155 40.9944 28.2871 40.6975L27.9901 40.5861L24.7451 39.4779C22.3375 38.6556 22.2646 35.3309 24.5251 34.3574L24.7451 34.2721L27.9901 33.1639C28.7343 32.9096 29.4153 32.4986 29.9872 31.9588C30.559 31.4189 31.0085 30.7627 31.3052 30.0344L31.4166 29.7374L32.5248 26.491ZM46.1277 21.75C46.3849 21.75 46.637 21.8222 46.8553 21.9583C47.0736 22.0944 47.2493 22.289 47.3625 22.52L47.4285 22.6809L47.9097 24.0916L49.3218 24.5729C49.5796 24.6605 49.8056 24.8226 49.9711 25.0387C50.1367 25.2549 50.2343 25.5153 50.2517 25.787C50.2691 26.0587 50.2054 26.3295 50.0688 26.565C49.9321 26.8004 49.7286 26.99 49.4841 27.1097L49.3218 27.1758L47.9111 27.657L47.4298 29.0691C47.3421 29.3268 47.1798 29.5527 46.9636 29.7181C46.7474 29.8835 46.4869 29.981 46.2152 29.9982C45.9435 30.0155 45.6728 29.9517 45.4374 29.8149C45.202 29.6781 45.0125 29.4746 44.893 29.23L44.827 29.0691L44.3457 27.6584L42.9336 27.1771C42.6758 27.0895 42.4498 26.9274 42.2843 26.7113C42.1187 26.4951 42.0211 26.2347 42.0037 25.963C41.9863 25.6913 42.05 25.4205 42.1867 25.185C42.3233 24.9496 42.5268 24.76 42.7713 24.6403L42.9336 24.5743L44.3443 24.093L44.8256 22.6809C44.9183 22.4092 45.0937 22.1734 45.3272 22.0064C45.5607 21.8395 45.8407 21.7498 46.1277 21.75Z" fill="white"/>
<circle cx="12.5" cy="9.5" r="0.5" fill="#D9D9D9"/>
</g>
<defs>
<filter id="filter0_i_491_330" x="0" y="0" width="70" height="74" filterUnits="userSpaceOnUse" color-interpolation-filters="sRGB">
<feFlood flood-opacity="0" result="BackgroundImageFix"/>
<feBlend mode="normal" in="SourceGraphic" in2="BackgroundImageFix" result="shape"/>
<feColorMatrix in="SourceAlpha" type="matrix" values="0 0 0 0 0 0 0 0 0 0 0 0 0 0 0 0 0 0 127 0" result="hardAlpha"/>
<feOffset dy="4"/>
<feGaussianBlur stdDeviation="2"/>
<feComposite in2="hardAlpha" operator="arithmetic" k2="-1" k3="1"/>
<feColorMatrix type="matrix" values="0 0 0 0 1 0 0 0 0 1 0 0 0 0 1 0 0 0 0.25 0"/>
<feBlend mode="normal" in2="shape" result="effect1_innerShadow_491_330"/>
</filter>
<filter id="filter1_i_491_330" x="0" y="0" width="70" height="74" filterUnits="userSpaceOnUse" color-interpolation-filters="sRGB">
<feFlood flood-opacity="0" result="BackgroundImageFix"/>
<feBlend mode="normal" in="SourceGraphic" in2="BackgroundImageFix" result="shape"/>
<feColorMatrix in="SourceAlpha" type="matrix" values="0 0 0 0 0 0 0 0 0 0 0 0 0 0 0 0 0 0 127 0" result="hardAlpha"/>
<feOffset dy="4"/>
<feGaussianBlur stdDeviation="2"/>
<feComposite in2="hardAlpha" operator="arithmetic" k2="-1" k3="1"/>
<feColorMatrix type="matrix" values="0 0 0 0 1 0 0 0 0 1 0 0 0 0 1 0 0 0 0.25 0"/>
<feBlend mode="normal" in2="shape" result="effect1_innerShadow_491_330"/>
</filter>
</defs>
</svg>
