<svg width="29" height="31" viewBox="0 0 29 31" fill="none" xmlns="http://www.w3.org/2000/svg">
<path fill-rule="evenodd" clip-rule="evenodd" d="M14.45 2.55078C14.8332 2.55078 15.2008 2.69854 15.4718 2.96156C15.7428 3.22458 15.895 3.58132 15.895 3.95328V5.44274C16.9407 5.56974 17.9636 5.83493 18.9353 6.23094L19.7011 4.94345C19.7953 4.78266 19.9213 4.64154 20.072 4.52821C20.2226 4.41489 20.3948 4.3316 20.5787 4.28314C20.7626 4.23467 20.9546 4.222 21.1435 4.24584C21.3325 4.26968 21.5148 4.32956 21.6798 4.42205C21.8448 4.51453 21.9894 4.63778 22.1052 4.78471C22.2209 4.93164 22.3056 5.09934 22.3543 5.27816C22.403 5.45698 22.4148 5.64338 22.389 5.82664C22.3632 6.00989 22.3002 6.18638 22.2039 6.34595L21.4366 7.63625C22.2747 8.25335 23.0232 8.98124 23.6619 9.7961L24.9913 9.04997C25.1557 8.95642 25.3375 8.89537 25.5263 8.87031C25.7151 8.84525 25.9072 8.85669 26.0914 8.90397C26.2757 8.95124 26.4484 9.03342 26.5998 9.14578C26.7512 9.25813 26.8782 9.39843 26.9735 9.55861C27.0688 9.71879 27.1305 9.89569 27.155 10.0791C27.1796 10.2625 27.1665 10.4488 27.1166 10.6273C27.0667 10.8058 26.9808 10.973 26.8641 11.1192C26.7473 11.2654 26.6019 11.3877 26.4363 11.4791L25.1069 12.2224C25.51 13.1495 25.7875 14.1396 25.9204 15.1733H27.455C27.8382 15.1733 28.2058 15.321 28.4768 15.5841C28.7478 15.8471 28.9 16.2038 28.9 16.5758C28.9 16.9477 28.7478 17.3045 28.4768 17.5675C28.2058 17.8305 27.8382 17.9783 27.455 17.9783H25.9204C25.7896 18.9932 25.5163 19.986 25.1083 20.9291L26.4348 21.6725C26.6005 21.7639 26.7459 21.8862 26.8626 22.0324C26.9794 22.1786 27.0652 22.3457 27.1152 22.5242C27.1651 22.7027 27.1781 22.889 27.1536 23.0725C27.129 23.2559 27.0673 23.4328 26.972 23.5929C26.8767 23.7531 26.7498 23.8934 26.5984 24.0058C26.447 24.1181 26.2742 24.2003 26.09 24.2476C25.9057 24.2949 25.7137 24.3063 25.5249 24.2813C25.3361 24.2562 25.1542 24.1951 24.9898 24.1016L23.6604 23.3569C23.0236 24.1719 22.2749 24.8986 21.4351 25.5167L22.2039 26.807C22.3002 26.9666 22.3632 27.1431 22.389 27.3263C22.4148 27.5096 22.403 27.696 22.3543 27.8748C22.3056 28.0536 22.2209 28.2213 22.1052 28.3683C21.9894 28.5152 21.8448 28.6384 21.6798 28.7309C21.5148 28.8234 21.3325 28.8833 21.1435 28.9071C20.9546 28.931 20.7626 28.9183 20.5787 28.8698C20.3948 28.8214 20.2226 28.7381 20.072 28.6248C19.9213 28.5114 19.7953 28.3703 19.7011 28.2095L18.9353 26.9192C17.9637 27.3157 16.9408 27.5814 15.895 27.7088V29.1983C15.895 29.5702 15.7428 29.927 15.4718 30.19C15.2008 30.453 14.8332 30.6008 14.45 30.6008C14.0668 30.6008 13.6992 30.453 13.4282 30.19C13.1572 29.927 13.005 29.5702 13.005 29.1983V27.7088C11.9593 27.5818 10.9364 27.3166 9.96472 26.9206L9.19887 28.2081C9.10468 28.3689 8.97865 28.51 8.82804 28.6234C8.67744 28.7367 8.50522 28.82 8.32131 28.8684C8.1374 28.9169 7.94543 28.9296 7.75645 28.9057C7.56748 28.8819 7.38523 28.822 7.22019 28.7295C7.05516 28.637 6.9106 28.5138 6.79484 28.3668C6.67909 28.2199 6.59442 28.0522 6.54571 27.8734C6.497 27.6946 6.48521 27.5082 6.51103 27.3249C6.53684 27.1417 6.59975 26.9652 6.69613 26.8056L7.46342 25.5153C6.62369 24.8972 5.87498 24.1705 5.23812 23.3555L3.90872 24.1016C3.74433 24.1951 3.56249 24.2562 3.37368 24.2813C3.18487 24.3063 2.99282 24.2949 2.80858 24.2476C2.62434 24.2003 2.45156 24.1181 2.30018 24.0058C2.1488 23.8934 2.02181 23.7531 1.92653 23.5929C1.83124 23.4328 1.76954 23.2559 1.74498 23.0725C1.72041 22.889 1.73347 22.7027 1.7834 22.5242C1.83333 22.3457 1.91915 22.1786 2.03591 22.0324C2.15267 21.8862 2.29806 21.7639 2.46372 21.6725L3.79312 20.9291C3.38412 19.9862 3.10992 18.9934 2.97814 17.9783H1.445C1.06176 17.9783 0.694221 17.8305 0.423231 17.5675C0.152241 17.3045 0 16.9477 0 16.5758C0 16.2038 0.152241 15.8471 0.423231 15.5841C0.694221 15.321 1.06176 15.1733 1.445 15.1733H2.97959C3.11044 14.1583 3.38367 13.1655 3.79168 12.2224L2.46517 11.4791C2.13599 11.2918 1.8965 10.9857 1.79897 10.6277C1.70144 10.2696 1.75378 9.88865 1.94457 9.56792C2.13537 9.24718 2.44912 9.01272 2.81737 8.91568C3.18562 8.81864 3.57846 8.86692 3.91017 9.04997L5.23957 9.79469C5.87537 8.98124 6.62532 8.25475 7.46487 7.63484L6.69613 6.34454C6.50753 6.02259 6.4578 5.6413 6.55777 5.28388C6.65775 4.92647 6.89932 4.62194 7.22978 4.43676C7.56023 4.25158 7.95273 4.20078 8.32164 4.29544C8.69054 4.3901 9.00589 4.62255 9.19887 4.94204L9.96472 6.23234C10.9362 5.83537 11.9592 5.56923 13.005 5.44133V3.95328C13.005 3.58132 13.1572 3.22458 13.4282 2.96156C13.6992 2.69854 14.0668 2.55078 14.45 2.55078ZM14.45 18.1957L7.76832 21.9403C8.41342 22.6971 9.19003 23.3383 10.063 23.8351L10.1685 23.8954C11.4739 24.6141 12.9492 24.9915 14.45 24.9908C15.8516 24.9908 17.1753 24.6682 18.3472 24.0946L18.8385 23.8351C19.711 23.3378 20.4871 22.696 21.1317 21.9389L14.45 18.1957ZM13.005 8.27719C12.1489 8.41746 11.3194 8.68174 10.5442 9.06119L10.1685 9.25754L10.063 9.31644C8.91423 9.9706 7.9362 10.8728 7.20477 11.9531L6.97068 12.3178L6.90999 12.4202C6.16907 13.6871 5.77971 15.119 5.78 16.5758C5.78 17.4594 5.92016 18.3149 6.18171 19.1143L6.32187 19.5112L13.005 15.7665V8.27719ZM15.895 8.27719V15.7665L22.5781 19.5112C22.9374 18.5719 23.1209 17.5778 23.12 16.5758C23.12 15.2154 22.7876 13.9307 22.1966 12.7932L21.99 12.4202L21.9438 12.343L21.9293 12.3178C21.2553 11.2028 20.3258 10.2536 19.2127 9.54365L18.7315 9.25613C17.9806 8.84238 17.1701 8.53984 16.3271 8.35853L15.895 8.27719Z" fill="white" fill-opacity="0.8"/>
</svg>
